<svg width="70.340485" height="81.652344" viewBox="0 0 70.3405 81.6523" fill="none" xmlns="http://www.w3.org/2000/svg" xmlns:xlink="http://www.w3.org/1999/xlink">
	<desc>
			Created with Pixso.
	</desc>
	<defs/>
	<path id="Vector" d="M61.89 32.65L46.38 29.1L50.97 9.66C51.57 7.09 54.18 5.48 56.8 6.08L62.84 7.46C65.45 8.06 67.08 10.63 66.47 13.21L61.89 32.65Z" fill="#FFFFFF" fill-opacity="1.000000" fill-rule="nonzero"/>
	<path id="Vector" d="M8.44 32.65L23.95 29.1L19.36 9.66C18.76 7.09 16.15 5.48 13.53 6.08L7.49 7.46C4.88 8.06 3.25 10.63 3.86 13.21L8.44 32.65Z" fill="#FFFFFF" fill-opacity="1.000000" fill-rule="nonzero"/>
	<path id="Vector" d="M41.45 4.94L28.88 4.94L30.14 0L40.19 0L41.45 4.94Z" fill="#FFFFFF" fill-opacity="1.000000" fill-rule="nonzero"/>
	<path id="Vector" d="M30.14 14.84L25.12 14.84L25.12 4.8C25.12 2.15 27.3 0 29.99 0L30.14 0L30.14 14.84Z" fill="#FFFFFF" fill-opacity="1.000000" fill-rule="nonzero"/>
	<path id="Vector" d="M45.21 14.84L40.19 14.84L40.19 0L40.34 0C43.03 0 45.21 2.15 45.21 4.8L45.21 14.84L45.21 14.84Z" fill="#FFFFFF" fill-opacity="1.000000" fill-rule="nonzero"/>
	<path id="Vector" d="M64.06 32.08L64.06 61.85L6.27 61.85L6.27 32.08C6.27 30.21 6.54 28.39 7.04 26.68L13.98 23.14L20.22 13.29C21.78 12.8 23.42 12.5 25.12 12.4L25.12 12.4L27.89 13.41L30.14 12.37L44.04 12.37C55.09 12.37 64.06 21.19 64.06 32.08Z" fill="#FEA301" fill-opacity="1.000000" fill-rule="nonzero"/>
	<path id="Vector" d="M33.79 12.37C30.56 13.96 22.78 18.92 22.78 29.63L22.78 61.85L6.27 61.85L6.27 32.08C6.27 21.19 15.24 12.37 26.29 12.37L33.79 12.37Z" fill="#FEA301" fill-opacity="1.000000" fill-rule="nonzero"/>
	<path id="Vector" d="M66.57 59.36L66.57 71.79C66.57 77.23 62.09 81.65 56.56 81.65L13.77 81.65C8.24 81.65 3.76 77.23 3.76 71.79L3.76 59.36C3.76 57.86 4.44 56.53 5.5 55.62C6.38 54.88 7.52 54.43 8.77 54.43L61.56 54.43C64.33 54.43 66.57 56.64 66.57 59.36Z" fill="#FEA301" fill-opacity="1.000000" fill-rule="nonzero"/>
	<path id="Vector" d="M22.92 81.65L13.77 81.65C8.24 81.65 3.76 77.23 3.76 71.79L3.76 59.36C3.76 57.87 4.44 56.53 5.5 55.62L18.05 61.85L18.05 74.42C18.05 77.55 19.79 80.34 22.92 81.65Z" fill="#FEA301" fill-opacity="1.000000" fill-rule="nonzero"/>
	<path id="Vector" d="M54.13 74.22C50.94 74.22 48.59 71.27 49.37 68.22L51.61 59.38L56.64 59.38L58.88 68.22C59.66 71.27 57.32 74.22 54.13 74.22Z" fill="#495560" fill-opacity="1.000000" fill-rule="nonzero"/>
	<path id="Vector" d="M70.34 59.39C70.34 60.07 70.06 60.68 69.6 61.13C69.15 61.58 68.52 61.85 67.83 61.85L18.05 61.85L13.34 61.07L13.34 52L22.78 49.48L60.28 49.48C65.83 49.48 70.34 53.92 70.34 59.39Z" fill="#FFFFFF" fill-opacity="1.000000" fill-rule="nonzero"/>
	<path id="Vector" d="M16.25 58.94C16.25 60.24 16.94 61.18 18.05 61.85L2.5 61.85C1.11 61.85 0 60.75 0 59.39C0 56.65 1.12 54.18 2.94 52.38C4.76 50.59 7.28 49.48 10.05 49.48L22.78 49.48C22.78 49.48 16.25 52.12 16.25 58.94Z" fill="#FFFFFF" fill-opacity="1.000000" fill-rule="nonzero"/>
	<path id="Vector" d="M40.27 27.21L30.06 27.21C28.72 27.21 27.63 26.14 27.63 24.82L27.63 22.18C27.63 20.86 28.72 19.79 30.06 19.79L40.27 19.79C41.61 19.79 42.7 20.86 42.7 22.18L42.7 24.82C42.7 26.14 41.61 27.21 40.27 27.21Z" fill="#68A2DF" fill-opacity="1.000000" fill-rule="nonzero"/>
	<path id="Vector" d="M26.66 39.83C26.66 41.98 24.43 43.73 21.68 43.73C18.94 43.73 16.71 41.98 16.71 39.83C16.71 37.67 18.94 35.93 21.68 35.93C24.43 35.93 26.66 37.67 26.66 39.83Z" fill="#FFFFFF" fill-opacity="1.000000" fill-rule="evenodd"/>
	<path id="Vector" d="M53.62 39.83C53.62 41.98 51.39 43.73 48.65 43.73C45.9 43.73 43.67 41.98 43.67 39.83C43.67 37.67 45.9 35.93 48.65 35.93C51.39 35.93 53.62 37.67 53.62 39.83Z" fill="#FFFFFF" fill-opacity="1.000000" fill-rule="evenodd"/>
	<path id="Vector" d="M39.99 35.13C39.3 35.13 38.74 35.68 38.74 36.36C38.74 36.99 38.22 37.51 37.58 37.51C36.94 37.51 36.42 36.99 36.42 36.36C36.42 35.68 35.86 35.13 35.17 35.13C34.47 35.13 33.91 35.68 33.91 36.36C33.91 36.99 33.39 37.51 32.75 37.51C32.11 37.51 31.59 36.99 31.59 36.36C31.59 35.68 31.03 35.13 30.34 35.13C29.65 35.13 29.09 35.68 29.09 36.36C29.09 38.35 30.73 39.97 32.75 39.97C33.68 39.97 34.52 39.63 35.17 39.08C35.81 39.63 36.65 39.97 37.58 39.97C39.6 39.97 41.24 38.35 41.24 36.36C41.24 35.68 40.68 35.13 39.99 35.13Z" fill="#495560" fill-opacity="1.000000" fill-rule="nonzero"/>
	<path id="Vector" d="M27.2 35.66C26.51 35.66 25.95 35.1 25.95 34.42C25.95 33.86 25.48 33.39 24.9 33.39C24.33 33.39 23.86 33.86 23.86 34.42C23.86 35.1 23.3 35.66 22.61 35.66C21.91 35.66 21.35 35.1 21.35 34.42C21.35 32.5 22.95 30.93 24.9 30.93C26.86 30.93 28.45 32.5 28.45 34.42C28.45 35.1 27.89 35.66 27.2 35.66Z" fill="#495560" fill-opacity="1.000000" fill-rule="nonzero"/>
	<path id="Vector" d="M47.73 35.66C47.03 35.66 46.47 35.1 46.47 34.42C46.47 33.86 46.01 33.39 45.43 33.39C44.85 33.39 44.38 33.86 44.38 34.42C44.38 35.1 43.82 35.66 43.13 35.66C42.44 35.66 41.88 35.1 41.88 34.42C41.88 32.5 43.47 30.93 45.43 30.93C47.39 30.93 48.98 32.5 48.98 34.42C48.98 35.1 48.42 35.66 47.73 35.66Z" fill="#495560" fill-opacity="1.000000" fill-rule="nonzero"/>
</svg>
